<?xml version="1.0" encoding="UTF-8"?><svg id="a" xmlns="http://www.w3.org/2000/svg" width="256" height="256" viewBox="0 0 256 256"><defs><style>.b{fill:#4a5668;}.c{fill:#fff;}</style></defs><path class="c" d="M255.95,246.67l-11.7-88.9c-.39-2.96-2.92-5.18-5.91-5.18h-9.22c16.29-8.55,24.28-26.8,24.28-55.13V8.56c0-3.29-2.67-5.96-5.96-5.96H8.04c-3.29,0-5.96,2.67-5.96,5.96v62.39c0,2.26,1.26,4.23,3.12,5.24,0,1.11.33,2.22.95,3.19l6.98,10.82c-1.83,0-3.7,0-5.61,0-3.29,0-5.96,2.67-5.96,5.96v60.05c0,1.63.67,3.18,1.84,4.31,1.06,1.01,2.45,1.59,3.91,1.65.28,42.55-3.24,64.1-7.2,84.13-.35,1.75.11,3.56,1.24,4.94,1.13,1.38,2.82,2.17,4.6,2.17h61.35c2.81,0,5.23-1.96,5.82-4.7,1.11-5.17,2.06-10.62,2.84-16.44,6.76,13.53,20.48,21.14,39.42,21.14h34.83c2.45,0,24.14-.16,32.42-5.68.19-.13.38-.27.55-.42l.1.86c.36,2.99,2.9,5.24,5.91,5.24h60.83c1.72,0,3.35-.74,4.48-2.03,1.13-1.29,1.65-3,1.43-4.71Z"/><path class="b" d="M58.43,149.59c-16.9,3.64-34.31,5.98-51.21,6.76v-60.05c5.72,0,11.18,0,16.38-.26l-12.74-19.76h42.64c4.6,14.3,11.79,33.94,21.37,51.86-4.63,8.66-8.7,17.72-12.19,26.39h-1.13l-3.12-4.94ZM55.29,208.32c-5.65,1.38-9.15-2.12-7.77-7.77,0,0,4.66-19.06,13.51-41.87H12.94c.52,46.79-3.38,69.14-7.28,88.9h61.35c2.59-12.01,4.36-26.1,5.19-44.08-10.2,3.17-16.9,4.81-16.9,4.81ZM47.52,55.74c-1.38-5.65,2.12-9.15,7.77-7.77,0,0,39.18,9.58,72.41,27.34,33.23-17.77,72.41-27.34,72.41-27.34,5.65-1.38,9.15,2.12,7.77,7.77,0,0-9.58,39.18-27.34,72.41,4.26,7.97,8.04,16.28,11.34,24.31h10.29c33.79,0,44.97-20.8,44.97-54.85V8.7H7.74v62.39h44.12c-2.86-9.32-4.34-15.35-4.34-15.35ZM127.7,180.98c-17.49,9.35-36.61,16.43-50.82,21.04v8.14c0,23.65,13.78,37.43,38.21,37.43h34.83c10.66,0,24.43-1.56,29.11-4.68v-40.72c-14.25-4.61-33.64-11.74-51.34-21.21ZM238.05,158.69h-43.68c8.85,22.8,13.51,41.87,13.51,41.87,1.38,5.65-2.12,9.15-7.77,7.77,0,0-6.55-1.6-16.55-4.71l5.36,43.97h60.83l-11.7-88.9ZM110.31,110.75c-9.61,9.61-9.61,25.18,0,34.79,9.61,9.61,25.18,9.61,34.79,0,9.61-9.61,9.61-25.18,0-34.79-9.61-9.61-25.18-9.61-34.79,0Z"/></svg>